<svg width="36" height="36" viewBox="0 0 36 36" fill="none" xmlns="http://www.w3.org/2000/svg">
<g opacity="0.83">
<path fill-rule="evenodd" clip-rule="evenodd" d="M0 18C0 8.0589 8.0589 0 18 0C27.9411 0 36 8.0589 36 18C36 27.9411 27.9411 36 18 36C8.0589 36 0 27.9411 0 18ZM18.0009 8.4C15.3937 8.4 15.0665 8.4114 14.0425 8.45798C13.0205 8.50478 12.3229 8.66663 11.7125 8.904C11.081 9.14917 10.5455 9.47722 10.0118 10.011C9.47783 10.5446 9.14978 11.0802 8.90378 11.7114C8.6658 12.3221 8.5038 13.0199 8.45782 14.0414C8.412 15.0655 8.4 15.3928 8.4 18.0001C8.4 20.6073 8.41162 20.9335 8.45798 21.9575C8.505 22.9795 8.66677 23.6771 8.904 24.2875C9.1494 24.919 9.47738 25.4546 10.0112 25.9882C10.5446 26.5222 11.0802 26.851 11.7113 27.0962C12.3221 27.3336 13.0198 27.4954 14.0417 27.5422C15.0657 27.5888 15.3927 27.6002 17.9997 27.6002C20.6071 27.6002 20.9333 27.5888 21.9574 27.5422C22.9793 27.4954 23.6777 27.3336 24.2886 27.0962C24.9198 26.851 25.4545 26.5222 25.9879 25.9882C26.5219 25.4546 26.85 24.919 27.096 24.2878C27.332 23.6771 27.494 22.9793 27.542 21.9578C27.588 20.9337 27.6 20.6073 27.6 18.0001C27.6 15.3928 27.588 15.0657 27.542 14.0417C27.494 13.0196 27.332 12.3221 27.096 11.7116C26.85 11.0802 26.5219 10.5446 25.9879 10.011C25.454 9.477 24.9199 9.14902 24.288 8.904C23.6759 8.66663 22.978 8.50478 21.9559 8.45798C20.9319 8.4114 20.6059 8.4 17.9979 8.4H18.0009Z" fill="#F3F6F8"/>
<path fill-rule="evenodd" clip-rule="evenodd" d="M17.1397 10.1301C17.3953 10.1297 17.6805 10.1301 18.0009 10.1301C20.5641 10.1301 20.8679 10.1393 21.8801 10.1853C22.8161 10.2281 23.3242 10.3845 23.6626 10.5159C24.1106 10.6899 24.43 10.8979 24.7658 11.2339C25.1018 11.5699 25.3098 11.8899 25.4842 12.3379C25.6156 12.6759 25.7722 13.1839 25.8148 14.1199C25.8608 15.1319 25.8708 15.436 25.8708 17.998C25.8708 20.56 25.8608 20.864 25.8148 21.876C25.772 22.812 25.6156 23.32 25.4842 23.658C25.3102 24.106 25.1018 24.425 24.7658 24.7609C24.4298 25.0969 24.1108 25.3048 23.6626 25.4788C23.3246 25.6108 22.8161 25.7668 21.8801 25.8097C20.8682 25.8556 20.5641 25.8656 18.0009 25.8656C15.4375 25.8656 15.1337 25.8556 14.1217 25.8097C13.1857 25.7665 12.6776 25.61 12.3391 25.4786C11.891 25.3046 11.571 25.0966 11.235 24.7606C10.899 24.4246 10.691 24.1054 10.5167 23.6572C10.3853 23.3192 10.2287 22.8112 10.1861 21.8752C10.14 20.8632 10.1309 20.5592 10.1309 17.9956C10.1309 15.4319 10.14 15.1295 10.1861 14.1175C10.2288 13.1815 10.3853 12.6735 10.5167 12.3351C10.6907 11.8871 10.899 11.5671 11.235 11.2311C11.571 10.8951 11.891 10.6871 12.3391 10.5127C12.6775 10.3807 13.1857 10.2247 14.1217 10.1817C15.0073 10.1417 15.3505 10.1297 17.1397 10.1277V10.1301ZM23.1254 11.7241C22.4894 11.7241 21.9734 12.2395 21.9734 12.8757C21.9734 13.5117 22.4894 14.0277 23.1254 14.0277C23.7614 14.0277 24.2774 13.5117 24.2774 12.8757C24.2774 12.2397 23.7614 11.7241 23.1254 11.7241ZM18.0009 13.0701C15.2783 13.0701 13.0709 15.2776 13.0709 18.0001C13.0709 20.7228 15.2783 22.9292 18.0009 22.9292C20.7236 22.9292 22.9301 20.7228 22.9301 18.0001C22.9301 15.2776 20.7236 13.0701 18.0009 13.0701Z" fill="#F3F6F8"/>
<path fill-rule="evenodd" clip-rule="evenodd" d="M18.0009 14.8C19.7681 14.8 21.2009 16.2327 21.2009 18.0001C21.2009 19.7673 19.7681 21.2001 18.0009 21.2001C16.2335 21.2001 14.8009 19.7673 14.8009 18.0001C14.8009 16.2327 16.2335 14.8 18.0009 14.8Z" fill="#F3F6F8"/>
</g>
</svg>
