<svg width="99" height="99" viewBox="0 0 99 99" fill="none" xmlns="http://www.w3.org/2000/svg">
<g opacity="0.9">
<path d="M49.5004 0C22.1643 0 0.000488281 22.1639 0.000488281 49.5C0.000488281 76.8357 22.1643 99 49.5004 99C76.8365 99 98.9999 76.8355 98.9999 49.5C99.0001 22.1639 76.8365 0 49.5004 0ZM75.6396 72.226L71.6762 76.1902C70.9686 76.8967 68.8967 77.3377 68.8302 77.3377C56.2919 77.447 44.2194 72.522 35.3492 63.651C26.4547 54.7514 21.524 42.6359 21.6565 30.0553C21.6565 30.0496 22.1102 28.037 22.8172 27.3367L26.7804 23.373C28.2306 21.916 31.0165 21.2575 32.9681 21.9105L33.8018 22.1886C35.7477 22.8408 37.7907 24.9924 38.3283 26.9746L40.3219 34.2917C40.8595 36.2796 40.1344 39.1077 38.6845 40.558L36.0382 43.2047C38.6364 52.8233 46.1834 60.3718 55.8036 62.9763L58.4489 60.3289C59.9059 58.8719 62.733 58.1474 64.7166 58.6842L72.0327 60.685C74.0153 61.2297 76.1664 63.2599 76.8185 65.2052L77.0966 66.0509C77.743 67.997 77.0897 70.7822 75.6396 72.226Z" fill="#212529"/>
</g>
</svg>
