<svg width="51" height="38" viewBox="0 0 51 38" fill="none" xmlns="http://www.w3.org/2000/svg">
<path d="M0.821556 38V27.1335C0.821556 24.0085 1.40749 20.7592 2.57937 17.3857C3.78675 13.9766 5.42028 10.7628 7.47994 7.74432C9.57511 4.69034 11.9189 2.11577 14.5112 0.0205909L23.4601 5.8267C21.3649 8.98721 19.6071 12.2898 18.1866 15.7344C16.8017 19.1435 16.127 22.9077 16.1625 27.027V38H0.821556ZM27.8279 38V27.1335C27.8279 24.0085 28.4139 20.7592 29.5858 17.3857C30.7931 13.9766 32.4267 10.7628 34.4863 7.74432C36.5815 4.69034 38.9252 2.11577 41.5176 0.0205909L50.4664 5.8267C48.3713 8.98721 46.6135 12.2898 45.193 15.7344C43.8081 19.1435 43.1333 22.9077 43.1689 27.027V38H27.8279Z" fill="#F3F6F8"/>
</svg>
