<svg width="75" height="75" viewBox="0 0 75 75" fill="none" xmlns="http://www.w3.org/2000/svg">
<path d="M0 37.5C0 16.7894 16.7894 0 37.5 0C58.2106 0 75 16.7894 75 37.5C75 58.2106 58.2106 75 37.5 75C16.7894 75 0 58.2106 0 37.5Z" fill="#333333"/>
<path d="M30 59.9999C34.1422 59.9999 37.5 56.6421 37.5 52.4999V44.9999H30C25.8578 44.9999 22.5 48.3578 22.5 52.4999C22.5 56.6421 25.8578 59.9999 30 59.9999Z" fill="#0ACF83"/>
<path d="M22.5 37.5C22.5 33.3578 25.8578 30 30 30H37.5V45H30C25.8578 45 22.5 41.642 22.5 37.5Z" fill="#A259FF"/>
<path d="M22.5 22.5C22.5 18.3578 25.8578 15 30 15H37.5V30H30C25.8578 30 22.5 26.6421 22.5 22.5Z" fill="#F24E1E"/>
<path d="M37.5 15H45C49.1422 15 52.5 18.3578 52.5 22.5C52.5 26.6421 49.1422 30 45 30H37.5V15Z" fill="#FF7262"/>
<path d="M52.5 37.5C52.5 41.642 49.1422 45 45 45C40.8578 45 37.5 41.642 37.5 37.5C37.5 33.3578 40.8578 30 45 30C49.1422 30 52.5 33.3578 52.5 37.5Z" fill="#1ABCFE"/>
</svg>
