<svg width="78" height="78" viewBox="0 0 78 78" fill="none" xmlns="http://www.w3.org/2000/svg">
<path d="M73.2198 4.99243H4.78467V73.0075H73.2198V4.99243Z" fill="#87BCF6"/>
<path d="M67.4845 10.6924H10.52V67.3075H67.4845V10.6924Z" fill="#252653"/>
<path fill-rule="evenodd" clip-rule="evenodd" d="M55.523 31.7324C50.4554 29.1764 41.7307 30.4146 41.7307 37.083C41.7307 42.0489 45.1666 44.0035 49.3675 45.644C55.3373 47.9744 49.5356 52.3788 42.2481 47.8241C42.2481 47.8241 41.9872 47.6959 41.859 47.8241C41.7307 47.9523 41.7307 48.0806 41.7307 48.2132C41.7307 48.3415 41.7307 52.9979 41.7307 52.9979C44.2778 54.3024 46.1793 54.9657 49.1199 54.9347C58.6051 54.8374 59.9715 45.7546 54.926 42.2612C54.0107 41.6244 51.5609 40.3553 50.787 40.059C46.7762 38.529 47.1167 36.3534 48.3903 35.2567C49.7965 34.0407 53.6967 35.8802 55.3373 36.9061C56.3322 37.5208 56.4958 36.7558 56.4914 36.0836L56.4781 32.9042C56.4781 32.148 56.2172 32.0861 55.523 31.7324Z" fill="#87BCF6"/>
<path fill-rule="evenodd" clip-rule="evenodd" d="M26.2316 39.6744V28.0268C26.2316 27.9693 26.435 27.7703 26.4881 27.7703C31.423 27.5183 34.231 28.4823 34.4831 33.7533C34.7705 39.8026 29.6984 39.9309 26.2316 39.9309V39.6744ZM20.2795 23.4986V54.811H26.2316V44.7199C33.5456 45.2417 40.1433 42.6194 40.1433 34.1645C40.1433 30.7552 39.082 27.3237 36.5658 25.2498C33.0503 22.3489 24.8342 22.9945 20.2795 23.4986Z" fill="#87BCF6"/>
</svg>
