<svg width="128" height="105" viewBox="0 0 128 105" fill="none" xmlns="http://www.w3.org/2000/svg">
<g opacity="0.9" filter="url(#filter0_d_200_2)">
<path d="M75.1162 7.74158L72.0661 6.93331C71.6736 6.80676 71.2868 6.84655 70.9108 7.05237C70.5336 7.25835 70.2788 7.56757 70.1479 7.97954L51.8033 69.3557C51.6724 69.7679 51.7134 70.1565 51.9264 70.5205C52.1395 70.8852 52.4587 71.1308 52.8856 71.2574L55.9347 72.066C56.3282 72.1935 56.7135 72.1535 57.0906 71.9474C57.4679 71.7404 57.7221 71.4322 57.8529 71.0209L76.198 9.64371C76.3287 9.23174 76.288 8.84309 76.0746 8.47825C75.8614 8.11358 75.5425 7.86797 75.1162 7.74158Z" fill="#212529"/>
<path d="M47.6238 19.7228C47.6238 19.3109 47.4597 18.946 47.1318 18.6293L44.6725 16.2521C44.3447 15.9352 43.9674 15.7764 43.5413 15.7764C43.1151 15.7764 42.7377 15.9354 42.41 16.2521L19.492 38.4062C19.1636 38.7231 19 39.0878 19 39.4997C19 39.9117 19.1642 40.2764 19.492 40.5931L42.4099 62.7472C42.7375 63.0645 43.1142 63.2224 43.5411 63.2224C43.968 63.2224 44.3447 63.064 44.6723 62.7472L47.1317 60.3713C47.4595 60.0546 47.6236 59.6897 47.6236 59.2773C47.6236 58.8658 47.4595 58.5011 47.1317 58.1844L27.8037 39.4997L47.1318 20.8163C47.4602 20.4996 47.6238 20.1348 47.6238 19.7228Z" fill="#212529"/>
<path d="M108.509 38.4057L85.5901 16.2516C85.2625 15.9349 84.8851 15.7759 84.4596 15.7759C84.0327 15.7759 83.6567 15.9349 83.3278 16.2516L80.8695 18.6286C80.5419 18.9455 80.3784 19.3097 80.3784 19.7222C80.3784 20.1346 80.5417 20.499 80.8695 20.8157L100.198 39.4996L80.8695 58.1844C80.5419 58.5012 80.3784 58.866 80.3784 59.2773C80.3784 59.6899 80.5417 60.0546 80.8695 60.3713L83.3278 62.7472C83.6567 63.0646 84.0329 63.2224 84.4596 63.2224C84.8852 63.2224 85.2625 63.0641 85.5901 62.7472L108.509 40.5932C108.837 40.2765 109 39.9112 109 39.4992C109 39.0871 108.837 38.7224 108.509 38.4057Z" fill="#212529"/>
</g>
<defs>
<filter id="filter0_d_200_2" x="0" y="0.861084" width="128" height="103.278" filterUnits="userSpaceOnUse" color-interpolation-filters="sRGB">
<feFlood flood-opacity="0" result="BackgroundImageFix"/>
<feColorMatrix in="SourceAlpha" type="matrix" values="0 0 0 0 0 0 0 0 0 0 0 0 0 0 0 0 0 0 127 0" result="hardAlpha"/>
<feOffset dy="13"/>
<feGaussianBlur stdDeviation="9.5"/>
<feComposite in2="hardAlpha" operator="out"/>
<feColorMatrix type="matrix" values="0 0 0 0 0 0 0 0 0 0 0 0 0 0 0 0 0 0 0.45 0"/>
<feBlend mode="normal" in2="BackgroundImageFix" result="effect1_dropShadow_200_2"/>
<feBlend mode="normal" in="SourceGraphic" in2="effect1_dropShadow_200_2" result="shape"/>
</filter>
</defs>
</svg>
