<svg width="118" height="120" viewBox="0 0 118 120" fill="none" xmlns="http://www.w3.org/2000/svg">
<g opacity="0.9" filter="url(#filter0_d_200_42)">
<path d="M90.9424 13.6334L88.7283 6.00007L80.6222 16.7386V21.2305L57.0442 49.6227L56.6606 49.4192C55.8551 48.9915 54.9399 48.7664 54.0157 48.7664C50.9791 48.7664 48.5063 51.155 48.5063 54.0913C48.5063 57.0275 50.9791 59.4161 54.0157 59.4161C57.054 59.4161 59.5242 57.0275 59.5242 54.0913C59.5242 53.1039 59.2378 52.1346 58.6963 51.2904L58.4804 50.9584L84.7141 24.4548L89.0201 23.9184L98.9995 14.7717L90.9424 13.6334Z" fill="#212529"/>
<path d="M75.2666 35.4617C79.6778 40.1787 82.3691 46.4279 82.3691 53.2731C82.3691 67.9344 70.0302 79.863 54.8616 79.863C39.6949 79.863 27.3559 67.9344 27.3559 53.2731C27.3559 38.6109 39.6949 26.6824 54.8616 26.6824C60.7581 26.6824 66.2229 28.4924 70.7064 31.558L75.9427 25.2517C70.0204 21.0772 62.7358 18.6058 54.8616 18.6058C35.0865 18.6058 19 34.1579 19 53.2731C19 72.3883 35.0865 87.9404 54.8616 87.9404C74.6368 87.9404 90.725 72.3883 90.725 53.2731C90.725 44.1359 87.0426 35.8204 81.0462 29.6212L75.2666 35.4617Z" fill="#212529"/>
<path d="M65.446 45.3833C67.1962 47.5702 68.2479 50.3029 68.2479 53.2736C68.2479 60.4068 62.2426 66.2111 54.8635 66.2111C47.4835 66.2111 41.4799 60.4068 41.4799 53.2736C41.4799 46.1404 47.4835 40.3353 54.8635 40.3353C57.4174 40.3353 59.7983 41.0432 61.8305 42.2488L67.0936 35.9124C63.6056 33.61 59.396 32.2587 54.8635 32.2587C42.876 32.2587 33.124 41.6857 33.124 53.2736C33.124 64.8607 42.876 74.2886 54.8635 74.2886C66.851 74.2886 76.6038 64.8607 76.6038 53.2736C76.6038 48.01 74.5771 43.2051 71.2577 39.5135L65.446 45.3833Z" fill="#212529"/>
</g>
<defs>
<filter id="filter0_d_200_42" x="0" y="0.00012207" width="118" height="119.94" filterUnits="userSpaceOnUse" color-interpolation-filters="sRGB">
<feFlood flood-opacity="0" result="BackgroundImageFix"/>
<feColorMatrix in="SourceAlpha" type="matrix" values="0 0 0 0 0 0 0 0 0 0 0 0 0 0 0 0 0 0 127 0" result="hardAlpha"/>
<feOffset dy="13"/>
<feGaussianBlur stdDeviation="9.5"/>
<feComposite in2="hardAlpha" operator="out"/>
<feColorMatrix type="matrix" values="0 0 0 0 0 0 0 0 0 0 0 0 0 0 0 0 0 0 0.45 0"/>
<feBlend mode="normal" in2="BackgroundImageFix" result="effect1_dropShadow_200_42"/>
<feBlend mode="normal" in="SourceGraphic" in2="effect1_dropShadow_200_42" result="shape"/>
</filter>
</defs>
</svg>
